# xmcd
#
# Track frame offsets: 
#        150
#        22897
#        41220
#        62632
#        81477
#        97065
#        107765
#        128260
#        151215
#        171320
#
# Disc length: 2577 seconds
#
# Revision: 1
# Processed by: cddbd v1.5.2PL0 Copyright (c) Steve Scherf et al.
# Submitted via: ExactAudioCopyFreeDBPlugin 1.0
#
DISCID=7b0a0f0a
DTITLE=夏韶聲 - 你喚醒我的靈魂
DYEAR=1989
DGENRE=Blues
TTITLE0=風中希冀
TTITLE1=閉着眼睛再見面
TTITLE2=WILD WORLD
TTITLE3=我是拾不得你
TTITLE4=媽媽我沒有過鐠
TTITLE5=追究
TTITLE6=你喚醒我的靈魂
TTITLE7=讓我孤單過這一晚
TTITLE8=SHUT UP
TTITLE9=洪流
EXTD=
EXTT0=
EXTT1=
EXTT2=
EXTT3=
EXTT4=
EXTT5=
EXTT6=
EXTT7=
EXTT8=
EXTT9=
PLAYORDER=
